<svg width="55" height="71" viewBox="0 0 55 71" fill="none" xmlns="http://www.w3.org/2000/svg">
<g id="Group">
<path id="Vector" d="M54.3943 44.0357L41.9534 31.611V4.84088C41.9534 3.55719 41.4434 2.32584 40.5357 1.41824C39.6275 0.510036 38.3962 0 37.1125 0H11.294C10.0103 0 8.77896 0.510022 7.87137 1.41824C6.96316 2.32591 6.45312 3.55722 6.45312 4.84088V9.68177C6.45312 10.5732 7.17602 11.2956 8.06694 11.2956C8.95785 11.2956 9.68075 10.5732 9.68075 9.68177V4.84088C9.68075 3.94997 10.4031 3.22762 11.294 3.22762H14.5211L14.5216 4.84088C14.5216 5.69722 14.8614 6.5179 15.4666 7.12301C16.0717 7.72812 16.8928 8.06849 17.7487 8.06849H30.6575C31.5139 8.06849 32.3345 7.72812 32.9397 7.12301C33.5448 6.5179 33.8851 5.69717 33.8851 4.84088V3.22762H37.1122C37.5401 3.22762 37.9507 3.39728 38.2533 3.69983C38.5558 4.00293 38.726 4.41299 38.726 4.8409V41.2927C38.0766 40.6374 37.1782 40.2905 36.2569 40.3408C35.3352 40.4007 34.4832 40.8535 33.917 41.5834L32.8845 42.9066C31.6791 44.4577 31.0816 46.3957 31.2032 48.3563C31.3253 50.317 32.1578 52.1658 33.5459 53.5565L34.8366 54.8472H11.2947C10.4038 54.8472 9.68144 54.1249 9.68144 53.2334V48.4087C9.68144 47.5178 8.95855 46.7954 8.06763 46.7954C7.17672 46.7954 6.45382 47.5178 6.45382 48.4087V53.2496C6.45382 54.5338 6.96384 55.7652 7.87206 56.6728C8.77972 57.5804 10.011 58.0905 11.2947 58.0905H30.6582V59.7043C30.6593 61.1344 31.1353 62.5235 32.0116 63.6538C32.888 64.784 34.1144 65.5918 35.4991 65.9489V69.3862C35.4991 69.8141 35.6693 70.2247 35.9719 70.5273C36.2744 70.8298 36.685 71 37.113 71H53.2497C53.6776 71 54.0877 70.8298 54.3908 70.5273C54.6933 70.2247 54.863 69.8141 54.863 69.3862V45.1818C54.8657 44.7528 54.6971 44.3406 54.3951 44.0358L54.3943 44.0357ZM30.6574 4.84116H17.7486V3.2279H30.6574V4.84116ZM51.635 67.7726H38.7262V64.5456C38.7262 64.1177 38.556 63.7071 38.2534 63.4045C37.9509 63.1019 37.5403 62.9318 37.1124 62.9318C36.2566 62.9318 35.4354 62.5919 34.8302 61.9868C34.2251 61.3817 33.8853 60.5606 33.8853 59.7047V58.0909H38.0644L43.2278 63.2705V63.271C43.861 63.9037 44.8864 63.9037 45.5196 63.271C46.1523 62.6378 46.1523 61.6124 45.5196 60.9792L35.8378 51.2974C34.9885 50.4589 34.4796 49.3356 34.4083 48.1444C34.3369 46.9531 34.7081 45.7775 35.4505 44.8433L36.4673 43.5202L44.0511 51.104C44.6838 51.7367 45.7098 51.7367 46.3424 51.104C46.975 50.4714 46.975 49.4454 46.3424 48.8128L41.9532 44.5203V36.1622L51.635 45.8439L51.635 67.7726Z" fill="#848484"/>
<path id="Vector_2" d="M8.56804 36.6304C7.84894 38.0886 7.91053 39.8105 8.73175 41.2142C9.55243 42.6178 11.0236 43.5158 12.6472 43.6038C14.2707 43.6924 15.8306 42.9598 16.7987 41.6533C17.7675 40.3475 18.0154 38.6423 17.459 37.1145H19.6535C19.0976 38.6424 19.3456 40.3475 20.3143 41.6533C21.2825 42.9597 22.8422 43.6923 24.4658 43.6038C26.0893 43.5157 27.56 42.6178 28.3813 41.2142C29.2019 39.8106 29.2635 38.0886 28.545 36.6304C28.7611 36.4451 28.9134 36.1966 28.9804 35.9205L32.5144 23.0117V23.0111C32.6425 22.5238 32.5349 22.0041 32.2237 21.6075C31.9196 21.2115 31.4484 20.9792 30.9492 20.9781H7.71299L6.45414 15.7498C6.27207 15.0124 5.59996 14.5013 4.84088 14.5234H1.61326C0.722343 14.5234 0 15.2463 0 16.1372C0 17.0281 0.722357 17.751 1.61326 17.751H3.58198L4.87269 22.9468L8.09976 35.8556H8.1003C8.17378 36.1555 8.33694 36.4256 8.56818 36.6304L8.56804 36.6304ZM14.5225 38.7278C14.5225 39.3804 14.1291 39.9688 13.5262 40.2189C12.9232 40.4685 12.229 40.3302 11.7676 39.8688C11.3062 39.4074 11.1679 38.7132 11.418 38.1102C11.6676 37.5072 12.256 37.1145 12.9086 37.1145C13.3365 37.1145 13.7471 37.2841 14.0497 37.5867C14.3522 37.8898 14.5224 38.2998 14.5224 38.7277L14.5225 38.7278ZM24.2042 40.3416C23.5516 40.3416 22.9632 39.9483 22.7131 39.3453C22.4635 38.7424 22.6018 38.0487 23.0632 37.5867C23.5246 37.1253 24.2189 36.9875 24.8218 37.2371C25.4248 37.4868 25.8175 38.0751 25.8175 38.7277C25.8175 39.1556 25.6479 39.5662 25.3453 39.8688C25.0422 40.1713 24.6322 40.3415 24.2043 40.3415L24.2042 40.3416ZM28.8354 24.2048L26.2053 33.8866H10.9399L8.5195 24.2048H28.8354Z" fill="#848484"/>
<path id="Vector_3" d="M14.522 30.6597H22.59C23.4809 30.6597 24.2038 29.9373 24.2038 29.0459C24.2038 28.155 23.4809 27.4326 22.59 27.4326H14.522C13.6306 27.4326 12.9082 28.155 12.9082 29.0459C12.9082 29.9373 13.6306 30.6597 14.522 30.6597Z" fill="#848484"/>
</g>
</svg>
