<svg width="64" height="71" viewBox="0 0 64 71" fill="none" xmlns="http://www.w3.org/2000/svg">
<path d="M63.9998 40.5455C63.9998 40.1892 63.8217 40.0113 63.8217 39.8329C63.6437 39.655 63.6437 39.4766 63.4651 39.2987L58.1169 35.0241C57.9388 35.0241 57.9388 34.8462 57.7602 34.8462V15.9677C57.7602 14.8993 57.2255 13.8303 56.3342 13.1183C55.6209 12.5841 54.5515 12.4057 53.6601 12.5841C52.234 12.4062 51.164 11.3373 51.164 9.91265C51.164 9.37845 50.8074 8.84426 50.4507 8.48798C49.916 8.13168 49.3813 8.13168 48.846 8.31009L46.5286 9.20058V6.52859C46.5286 5.81599 45.9939 5.10392 45.4591 4.92544C44.9244 4.56914 44.2111 4.39125 43.4984 4.39125H43.3203C41.7156 4.39125 40.4682 3.14445 40.4682 1.54191C40.4682 1.00772 40.2901 0.473522 39.7549 0.295118C39.2202 -0.0611826 38.8636 -0.0611826 38.1502 0.117222L8.20035 11.8715C6.06146 12.5836 6.2396 14.8993 6.2396 14.8993V32.5311L1.06943 34.8463C0.356635 35.0242 0 35.9147 0 36.6268V36.9831V50.5186C0 51.0528 0.178069 51.587 0.713296 51.9433L24.6019 70.6437C24.9585 70.8216 25.3152 71 25.6713 71C25.8494 71 26.206 71 26.3846 70.8221L62.9306 55.5056C63.6439 55.1493 64 54.6151 64 53.9024L63.9998 40.5455ZM57.7602 39.2987L58.8297 40.1892L57.7602 40.7234V39.2987ZM54.3728 15.9677V41.9702L26.0274 53.7245V27.5439L26.2055 27.366L54.3728 15.9677ZM48.1332 12.2279C48.4899 12.9405 48.8465 13.6526 49.3813 14.1867L24.6013 24.3385C24.6013 24.3385 24.4232 24.3385 24.4232 24.5164C23.8885 24.6943 23.5319 25.0506 23.1752 25.0506C21.9272 25.0506 20.8578 24.1601 20.5011 23.0918L48.1332 12.2279ZM22.6402 28.4349V51.0535L20.5008 49.2725V27.7225C21.0355 28.0783 21.7488 28.2567 22.6402 28.4346V28.4349ZM42.9633 7.24111V10.6252L19.0747 20.0644C19.0747 20.0644 18.8967 20.0644 18.8967 20.2423C17.292 20.9549 16.9359 21.6669 16.9359 23.2701V46.6011L15.6879 45.7106L14.6185 44.8201V20.5986C14.6185 20.5986 14.4404 18.4613 16.7579 17.5708L42.9633 7.24111ZM37.6151 3.32331C37.9718 4.21381 38.5065 4.92646 39.2198 5.63847L14.0834 15.9681C12.8353 16.5023 12.4786 16.5023 12.4786 16.5023C11.0526 16.5023 9.98257 15.6118 9.62654 14.365L37.6151 3.32331ZM9.44801 18.996C10.1613 19.5302 11.0527 19.7086 11.9441 19.8865V42.6832L9.44801 40.7244V18.996ZM6.23922 36.2717V38.2305L4.63451 36.9837L6.23922 36.2717ZM60.4342 53.013L26.0275 67.439L3.56513 49.8072V40.7244L13.5482 48.3825L24.6012 57.1096C25.1359 57.4659 25.8492 57.6438 26.3839 57.2875L60.4341 43.0396L60.4342 53.013Z" fill="#848484"/>
</svg>
